<svg xmlns="http://www.w3.org/2000/svg" xmlns:xlink="http://www.w3.org/1999/xlink" width="33.772" height="33.772" viewBox="0 0 33.772 33.772"><defs><clipPath id="a"><rect width="33.772" height="33.772" transform="translate(93)" fill="#fff" stroke="#707070" stroke-width="1"/></clipPath></defs><g transform="translate(-93)" clip-path="url(#a)"><g transform="translate(94.251)"><path d="M19.339,0A15.653,15.653,0,0,0,3.7,15.635a.625.625,0,1,0,1.251,0,3.127,3.127,0,1,1,6.254,0,.625.625,0,1,0,1.251,0,3.127,3.127,0,1,1,6.254,0,.625.625,0,1,0,1.251,0,3.127,3.127,0,0,1,6.254,0,.625.625,0,0,0,1.251,0,3.127,3.127,0,1,1,6.254,0,.625.625,0,0,0,1.251,0A15.652,15.652,0,0,0,19.339,0Z" transform="translate(-3.704)" fill="#314e55"/><path d="M33.861,13.71a4.38,4.38,0,0,0-3.752,2.125,4.376,4.376,0,0,0-7.5,0,4.376,4.376,0,0,0-7.5,0,4.374,4.374,0,0,0-6.465-1.181,14.387,14.387,0,0,1,27.941,0A4.355,4.355,0,0,0,33.861,13.71Z" transform="translate(-6.969 -2.453)" fill="#e7e5ef"/><path d="M48.822,83.67a2.189,2.189,0,1,0-2.189,2.189A2.192,2.192,0,0,0,48.822,83.67Z" transform="translate(-30.685 -53.963)" fill="#314e55"/><circle cx="0.938" cy="0.938" r="0.938" transform="translate(15.01 28.769)" fill="#e7e5ef"/><g transform="translate(1.251 16.483)"><path d="M56.389,89.072l-2.5,2.5a.625.625,0,1,0,.884.884l2.5-2.5a.625.625,0,0,0-.884-.884Z" transform="translate(-38.068 -75.352)" fill="#314e55"/><path d="M38.1,89.072a.625.625,0,0,0-.884.884l2.5,2.5a.625.625,0,1,0,.884-.884Z" transform="translate(-27.031 -75.352)" fill="#314e55"/><path d="M18.8,61.427a.625.625,0,0,0,.43-1.08L8.462,50.172a.625.625,0,1,0-.859.909L18.371,61.256A.624.624,0,0,0,18.8,61.427Z" transform="translate(-7.407 -49.597)" fill="#314e55"/><path d="M69.286,50.172,58.518,60.347a.625.625,0,1,0,.859.909L70.146,51.08a.625.625,0,1,0-.859-.909Z" transform="translate(-41.127 -49.597)" fill="#314e55"/><path d="M27.365,48.91a.625.625,0,0,0-.177.867l5.995,9.066a.625.625,0,0,0,1.043-.69l-5.995-9.066A.625.625,0,0,0,27.365,48.91Z" transform="translate(-20.439 -48.806)" fill="#314e55"/><path d="M53.4,59.123a.624.624,0,0,0,.522-.28l5.995-9.066a.625.625,0,0,0-1.043-.69l-5.995,9.066a.626.626,0,0,0,.521.971Z" transform="translate(-37.455 -48.806)" fill="#314e55"/><path d="M48.774,59.556a.625.625,0,0,0,.625-.625V52.2a.625.625,0,1,0-1.251,0v6.726A.625.625,0,0,0,48.774,59.556Z" transform="translate(-34.389 -50.642)" fill="#314e55"/></g></g></g></svg>
