<svg xmlns="http://www.w3.org/2000/svg" xmlns:xlink="http://www.w3.org/1999/xlink" width="32.228" height="32.228" viewBox="0 0 32.228 32.228"><defs><clipPath id="a"><rect width="32.228" height="32.228" transform="translate(93)" fill="#fff" stroke="#707070" stroke-width="1"/></clipPath></defs><g transform="translate(-93)" clip-path="url(#a)"><g transform="translate(94.194)"><path d="M18.624,0A14.937,14.937,0,0,0,3.7,14.92a.6.6,0,0,0,1.194,0,2.984,2.984,0,1,1,5.968,0,.6.6,0,0,0,1.194,0,2.984,2.984,0,1,1,5.968,0,.6.6,0,1,0,1.194,0,2.984,2.984,0,1,1,5.968,0,.6.6,0,0,0,1.194,0,2.984,2.984,0,1,1,5.968,0,.6.6,0,0,0,1.194,0A14.936,14.936,0,0,0,18.624,0Z" transform="translate(-3.704)" fill="#e7e5ef"/><path d="M32.708,13.253a4.18,4.18,0,0,0-3.581,2.028,4.176,4.176,0,0,0-7.162,0,4.176,4.176,0,0,0-7.162,0,4.173,4.173,0,0,0-6.17-1.127,13.729,13.729,0,0,1,26.663,0A4.156,4.156,0,0,0,32.708,13.253Z" transform="translate(-7.045 -2.51)" fill="#314e55"/><path d="M48.622,83.57a2.089,2.089,0,1,0-2.089,2.089A2.091,2.091,0,0,0,48.622,83.57Z" transform="translate(-31.315 -55.222)" fill="#e7e5ef"/><path d="M.9,0A.9.9,0,1,1,0,.9.9.9,0,0,1,.9,0Z" transform="translate(14.323 27.453)" fill="#314e55"/><g transform="translate(1.194 15.729)"><path d="M56.266,89.064l-2.387,2.387a.6.6,0,1,0,.844.844l2.387-2.387a.6.6,0,1,0-.844-.844Z" transform="translate(-38.783 -75.971)" fill="#e7e5ef"/><path d="M38.056,89.064a.6.6,0,0,0-.844.844L39.6,92.295a.6.6,0,1,0,.844-.844Z" transform="translate(-27.488 -75.971)" fill="#e7e5ef"/><path d="M18.28,60.9a.6.6,0,0,0,.41-1.03L8.414,50.164a.6.6,0,1,0-.82.867l10.275,9.71A.6.6,0,0,0,18.28,60.9Z" transform="translate(-7.407 -49.616)" fill="#e7e5ef"/><path d="M68.785,50.164l-10.276,9.71a.6.6,0,1,0,.82.867l10.276-9.71a.6.6,0,1,0-.82-.867Z" transform="translate(-41.914 -49.616)" fill="#e7e5ef"/><path d="M27.353,48.905a.6.6,0,0,0-.168.827l5.72,8.651a.6.6,0,0,0,1-.659l-5.72-8.651A.6.6,0,0,0,27.353,48.905Z" transform="translate(-20.743 -48.806)" fill="#e7e5ef"/><path d="M53.374,58.651a.6.6,0,0,0,.5-.268l5.72-8.651a.6.6,0,0,0-1-.659l-5.72,8.651a.6.6,0,0,0,.5.926Z" transform="translate(-38.156 -48.806)" fill="#e7e5ef"/><path d="M48.745,59.191a.6.6,0,0,0,.6-.6V52.176a.6.6,0,1,0-1.194,0v6.419A.6.6,0,0,0,48.745,59.191Z" transform="translate(-35.018 -50.685)" fill="#e7e5ef"/></g></g></g></svg>
